<?xml version="1.0" standalone="no"?>
<!DOCTYPE svg PUBLIC "-//W3C//DTD SVG 20010904//EN"
 "http://www.w3.org/TR/2001/REC-SVG-20010904/DTD/svg10.dtd">
<svg version="1.0" xmlns="http://www.w3.org/2000/svg"
 width="700.000000pt" height="700.000000pt" viewBox="0 0 700.000000 700.000000"
 preserveAspectRatio="xMidYMid meet">
<metadata>
Created by potrace 1.11, written by Peter Selinger 2001-2013
</metadata>
<g transform="translate(0.000000,700.000000) scale(0.100000,-0.100000)"
fill="#000000" stroke="none">
<path d="M1680 5394 c-497 -39 -875 -359 -967 -819 -21 -106 -21 -324 0 -430
41 -204 131 -370 280 -518 200 -199 455 -297 767 -298 301 0 544 90 749 277
70 64 169 190 206 264 127 251 149 582 56 845 -88 249 -265 447 -508 568 -163
82 -395 126 -583 111z m292 -213 c356 -83 606 -371 637 -736 15 -162 -12 -321
-75 -454 -107 -229 -289 -378 -545 -448 -100 -28 -357 -25 -466 4 -237 65
-426 218 -529 428 -52 107 -72 179 -83 300 -19 227 37 435 163 602 107 142
277 253 457 299 121 31 319 33 441 5z"/>
<path d="M3320 4360 l0 -1020 105 0 105 0 0 470 0 470 640 0 640 0 0 -470 0
-470 105 0 105 0 0 1020 0 1020 -105 0 -105 0 0 -455 0 -455 -640 0 -640 0 0
455 0 455 -105 0 -105 0 0 -1020z"/>
<path d="M5510 2845 l295 -295 -400 0 c-220 0 -1167 7 -2105 15 -938 8 -1900
15 -2138 15 l-433 0 3 -102 3 -103 950 -6 c523 -3 1456 -7 2075 -9 619 -2
1331 -6 1582 -9 l457 -6 -290 -297 -291 -298 177 0 177 0 354 346 c195 191
354 350 354 355 0 4 -159 161 -352 348 l-353 341 -180 0 -180 0 295 -295z"/>
</g>
</svg>
